<?xml version="1.0" encoding="utf-8"?>
<svg xmlns="http://www.w3.org/2000/svg" width="1216" height="450" viewBox="0 0 1216 450" fill="none">
<ellipse opacity="0.08" cx="312" cy="407.5" rx="62" ry="9.5" fill="#2B2B2B"/>
<ellipse opacity="0.08" cx="740" cy="402.5" rx="62" ry="9.5" fill="#2B2B2B"/>
<ellipse opacity="0.08" cx="952" cy="411.5" rx="62" ry="9.5" fill="#2B2B2B"/>
<ellipse opacity="0.08" cx="845" cy="411.5" rx="62" ry="9.5" fill="#2B2B2B"/>
<path fill-rule="evenodd" clip-rule="evenodd" d="M695 213L644 143L593 213H619V357H669V213H695Z" fill="#DDD9F8"/>
<path d="M254 249.5L365.5 235L384 262L495.5 178.5L532 185L574.5 178.5L644.5 120H673.5L726.5 85L856 99L911.5 54.5H955" stroke="#DDD9F8" stroke-width="2"/>
<path fill-rule="evenodd" clip-rule="evenodd" d="M233 315.627L208.5 282L184 315.627H196V354.805H221V315.627H233Z" fill="#DDD9F8"/>
<path fill-rule="evenodd" clip-rule="evenodd" d="M284 256.176L249 208.137L214 256.176H231.844V354.999H266.157V256.176H284Z" fill="#DDD9F8"/>
<path fill-rule="evenodd" clip-rule="evenodd" d="M928 278.078L883.5 217L839 278.078H862V357H905V278.078H928Z" fill="#DDD9F8"/>
<path d="M332.666 176.03C332.666 176.03 330.771 176.672 335 176.03C341.47 175.043 369.35 161.78 373.626 144.001C377.48 127.82 373.971 116.391 373.626 107.134C371.825 105.458 367.972 106.69 366.5 106.001C363.226 104.528 365.545 123.957 351.134 137.71C329 152.001 307.164 161.525 304.032 168.479C300.57 176.108 332.666 176.03 332.666 176.03Z" fill="#BC3E1E"/>
<path d="M332.18 385.708C331.287 384.581 321.575 385.52 321.465 386.1C321.168 387.886 320.714 394.731 321.638 395.64C322.562 396.548 332.242 396.485 332.43 394.762C332.618 393.039 333.041 386.742 332.18 385.708Z" fill="#EFA07F"/>
<path d="M320.932 393.555C320.932 393.555 316.452 399.977 319.663 405.005C319.663 405.005 343.034 406.117 350.099 405.005C350.099 405.005 350.287 396.39 344.225 395.607C340.205 395.156 336.16 394.978 332.116 395.074C332.116 395.074 325.35 398.317 320.932 393.555Z" fill="#3D2A26"/>
<path d="M286.673 385.708C285.78 384.581 276.068 385.52 275.974 386.1C275.677 387.886 275.207 394.731 276.131 395.64C277.055 396.548 286.736 396.485 286.924 394.762C287.111 393.039 287.534 386.742 286.673 385.708Z" fill="#EFA07F"/>
<path d="M275.441 393.555C275.441 393.555 270.945 399.977 274.157 405.005C274.157 405.005 297.528 406.117 304.592 405.005C304.592 405.005 304.78 396.39 298.734 395.607C294.714 395.156 290.669 394.978 286.625 395.074C286.625 395.074 279.843 398.317 275.441 393.555Z" fill="#3D2A26"/>
<path d="M346.827 315.275C346.827 334.167 338.89 373.877 333.562 391H319.762C319.762 390.901 319.605 371.301 319.621 363.716C319.621 349.974 315.487 327.388 314.387 314.963C313.79 308.284 314.01 291.641 309.247 280.617C308.367 278.565 307.519 276.598 306.748 274.73C303.951 267.895 302.159 262.588 303.401 261.315C306.796 257.833 336.045 232.035 343.37 246.229C351.087 261.173 346.827 296.411 346.827 315.275Z" fill="#216DB6"/>
<path d="M318.126 256.235C318.126 256.235 318.126 256.881 318.126 258.103C317.76 262.349 324.41 277.823 323.5 282C322 303 311.732 303.921 309.5 322C307.169 340.63 293.959 371.134 288.539 391H275.12C275.12 391 275.849 353.004 277.61 347.539C279.725 340.851 275.12 316.629 275.12 308.522C275.12 284.94 273.303 277.845 283.845 254.422C283.984 254.113 284.107 253.79 284.262 253.481C285.894 249.981 287.798 246.591 289.96 243.337C290.701 242.227 292.399 241.819 294.716 242.072C300.306 242.662 309.463 247.186 317.06 255.054C317.385 255.42 317.755 255.813 318.126 256.235Z" fill="#1B7FC3"/>
<path d="M355 262.875C354.281 265.573 331.378 268.776 315.971 271.752C300.565 274.728 276.417 271.874 275.145 268.497C274.011 265.416 279.916 237.984 279.446 218.02C278.865 194.139 279.64 168.187 283.941 164.062C284.757 163.244 285.697 162.321 286.707 161.52C288.459 160.011 290.284 158.64 292.17 157.413C295.732 155.034 299.506 153.199 303.414 151.947C310.752 149.507 318.452 149.358 325.846 151.512V151.512C327.952 152.105 330.023 152.885 332.042 153.844L333.55 154.541C339.662 157.656 339.704 172.625 338.846 187.124C338.75 189.318 338.597 191.511 338.445 193.617C337.867 199.804 337.586 206.029 337.602 212.259C338.058 216.698 339.076 221.017 340.617 225.052V225.052C341.156 226.584 341.723 228.185 342.359 229.804C342.375 229.885 342.403 229.962 342.442 230.03C346.951 241.866 353.257 254.799 354.696 261.587C354.827 262.004 354.929 262.435 355 262.875V262.875Z" fill="#D55838"/>
<path d="M247.186 223.473C251.54 234.767 263.476 225.697 265.246 221.045C266.077 218.883 285.86 191.158 289.338 180.318C290.749 175.725 290.749 170.813 289.338 166.22C287.865 160.91 281.991 159.641 276.948 161.866C266.75 166.361 262.286 175.744 254.172 188.949C245.243 203.47 244.914 217.567 247.186 223.473Z" fill="#D55838"/>
<path d="M309.279 181.397C311.864 178.875 316.704 176.337 320.448 177.794C322.249 178.499 321.81 179.689 320.04 179.768C316.626 179.924 314.323 181.068 319.398 180.535C320.432 180.426 322.531 180.708 322.672 181.46C322.844 183.026 319.147 183.026 317.518 183.183C316.344 183.981 320.213 184.185 320.839 184.655C323.659 186.785 316.453 186.597 316.218 187.067C315.592 188.383 320.479 187.741 318.881 189.448C317.675 190.717 313.007 189.448 311.566 189.824C310.391 190.137 309.796 191.156 308.59 190.388C305.927 188.696 308.183 182.462 309.279 181.397Z" fill="#EFA07F"/>
<path d="M308.402 182.744C308.778 181.397 309.718 178.044 310.83 177.167C311.425 176.65 312.396 176.368 312.396 177.496C312.295 178.226 312.015 178.92 311.582 179.517C311.253 180.018 311.049 180.66 310.689 181.083C310.028 181.764 309.254 182.326 308.402 182.744Z" fill="#EFA07F"/>
<path d="M251.12 228.047C266.91 239.012 311.568 189.826 311.568 189.826L307.856 184.328C307.182 184.453 271.437 200.149 265.249 202.546C259.36 204.817 237.492 218.57 251.12 228.047Z" fill="#D55838"/>
<path d="M367.299 98.0268C366.813 97.6979 367.299 96.2411 367.862 95.7712C368.026 95.648 368.151 95.481 368.223 95.2897C368.295 95.0984 368.311 94.8906 368.27 94.6903C368.129 94.1734 367.721 94.1578 367.346 94.2048C366.733 94.4998 366.191 94.9243 365.759 95.4489C365.326 95.9736 365.012 96.5859 364.839 97.2436C364.291 102.334 365.435 106.642 366.985 107.786C368.059 108.37 369.293 108.59 370.502 108.412C371.711 108.234 372.83 107.668 373.69 106.799C376.634 102.1 376.822 99.4679 375.601 97.5099C377.198 96.5231 367.8 98.3871 367.299 98.0268Z" fill="#EFA07F"/>
<path d="M376.793 97.0233C376.965 95.128 376.684 95.128 374.444 94.8773H374.334C374.115 94.7767 373.883 94.7081 373.645 94.6737C373.293 94.6428 372.938 94.6692 372.595 94.752C372.532 94.6507 372.459 94.5562 372.376 94.4701C371.911 94.1215 371.334 93.9574 370.755 94.0095C370.177 94.0615 369.638 94.3261 369.243 94.752C369.192 94.795 369.145 94.8421 369.102 94.893C368.839 94.6076 368.51 94.3911 368.144 94.2627C367.778 94.1344 367.386 94.098 367.003 94.1568C366.396 94.2143 365.828 94.4848 365.401 94.9206C364.974 95.3564 364.714 95.9292 364.669 96.5377C364.168 98.3234 364.528 100.61 365.468 100.72C366.893 100.877 367.332 99.1537 367.034 98.0415C367.028 97.9947 367.028 97.9473 367.034 97.9005C367.255 98.5448 367.685 99.0964 368.256 99.4669C368.405 99.5768 368.577 99.6535 368.758 99.6918C368.939 99.7301 369.127 99.7292 369.308 99.6892C369.489 99.6491 369.659 99.5708 369.807 99.4596C369.955 99.3483 370.078 99.2066 370.167 99.044L370.308 99.3416C370.403 99.5465 370.548 99.7238 370.731 99.857C370.913 99.9902 371.126 100.075 371.35 100.103C371.574 100.131 371.801 100.102 372.011 100.018C372.221 99.9343 372.405 99.7985 372.548 99.6236C372.73 99.3864 372.892 99.1349 373.034 98.8717C374.757 100.391 376.605 98.856 376.793 97.0233Z" fill="#EFA07F"/>
<path d="M1005.96 188.685C995.188 195.589 977.313 197.671 967.322 188.027C965.46 186.082 964.135 183.686 963.476 181.075C962.817 178.464 962.848 175.726 963.565 173.131C964.005 171.422 964.738 169.803 965.731 168.345C967.741 165.294 968.638 165.605 967.753 161.429C966.951 157.612 966.556 158.246 964.666 155.578C964.004 154.613 963.477 153.562 963.098 152.455C959.999 143.697 968.877 128.418 979.275 131.397C979.321 131.416 979.365 131.44 979.406 131.469C984.85 131.385 989.912 134.651 990.893 140.347C991.431 143.529 990.749 146.76 993.992 148.842C995.399 149.52 996.84 150.123 998.311 150.648C1000.87 151.846 1002.87 153.991 1003.87 156.631C1004.33 158.056 1004.62 159.53 1004.74 161.022C1005.37 165.102 1005.84 167.507 1008.98 170.056C1010.72 171.455 1012.36 172.724 1013.08 174.937C1014.99 180.764 1010.49 185.789 1005.96 188.685Z" fill="#3F2B2A"/>
<path d="M1001.83 165.342C999.433 163.499 1001.5 159.36 1000.5 156.871C1000.1 155.907 999.488 155.047 998.709 154.355C997.929 153.662 997.003 153.156 995.999 152.875C995.926 152.853 995.85 152.847 995.774 152.855C995.698 152.863 995.625 152.887 995.559 152.923C995.492 152.96 995.433 153.009 995.386 153.069C995.338 153.128 995.303 153.196 995.281 153.269C995.26 153.342 995.254 153.419 995.262 153.495C995.27 153.57 995.293 153.643 995.33 153.71C995.367 153.777 995.416 153.836 995.476 153.883C995.535 153.931 995.603 153.966 995.676 153.987C996.433 154.207 997.136 154.579 997.743 155.082C998.35 155.584 998.848 156.205 999.206 156.907C1000.01 158.51 999.637 160.125 999.517 161.812C999.369 162.646 999.446 163.504 999.738 164.298C1000.03 165.093 1000.53 165.796 1001.18 166.335C1001.81 166.79 1002.41 165.797 1001.83 165.342Z" fill="#332322"/>
<path d="M1008.84 176.506C1008.62 175.788 1007.49 176.075 1007.7 176.793C1008.15 178.235 1008.09 179.785 1007.53 181.189C1006.98 182.593 1005.97 183.768 1004.66 184.522C1004.02 184.905 1004.57 185.922 1005.21 185.551C1006.74 184.668 1007.93 183.296 1008.59 181.656C1009.25 180.015 1009.34 178.202 1008.84 176.506Z" fill="#332322"/>
<path d="M971.52 157.947C969.378 164.468 966.734 171.336 962.055 176.505C954.482 184.88 948.248 181.183 942.553 175.308C939.31 172.006 935.266 164.935 936.654 160.017C937.85 155.734 944.276 152.132 948.619 151.642C952.376 151.259 953.082 150.744 954.864 147.406C955.75 145.779 955.199 145.863 956.205 144.271C957.758 142.381 959.594 140.743 961.649 139.414C965.441 136.937 968.373 137.667 972.812 137.487H972.943C973.117 137.452 973.296 137.452 973.47 137.487H974.212C975.552 137.487 975.648 139.27 974.607 139.713C975.552 146.042 973.458 152.037 971.52 157.947Z" fill="#3F2B2A"/>
<path d="M945.853 154.238C941.737 155.638 938.507 158.88 938.674 163.451C938.674 164.193 939.871 164.217 939.871 163.451C939.763 159.431 942.575 156.595 946.2 155.363C946.834 155.135 946.559 153.999 945.853 154.238Z" fill="#332322"/>
<path d="M981.942 392.615L980.267 402.163H975.745L973.591 391.598L981.942 392.615Z" fill="#ED8150"/>
<path d="M1003.66 249.539C1003.09 275.918 1000.74 302.228 996.634 328.292C991.692 358.874 981.295 393.286 981.295 393.286H973.171C973.171 393.286 970.179 351.959 968.385 326.019C966.71 301.311 959.662 254.122 959.662 254.122L1003.66 249.539Z" fill="#8A6765"/>
<path d="M983.712 395.438C983.964 395.342 984.194 395.195 984.387 395.006C984.58 394.817 984.733 394.59 984.835 394.34C984.937 394.09 984.986 393.822 984.98 393.552C984.975 393.282 984.913 393.016 984.801 392.77C984.99 392.139 985.051 391.475 984.98 390.82C984.801 390.21 972.07 389.085 971.376 390.82C970.682 392.555 971.914 393.081 971.914 393.081C971.914 393.081 970.371 394.278 971.998 394.72C973.625 395.163 979.476 396.659 983.712 395.438Z" fill="#745751"/>
<path d="M987.624 246.582C987.624 246.582 986.918 267.15 983.568 301.848C980.074 338.066 972.261 380.493 972.261 380.493C972.261 380.493 969.413 336.092 967.667 316.888C966.207 300.891 959.698 254.084 959.698 254.084L987.624 246.582Z" fill="#745751"/>
<path d="M980.817 399.076C980.817 399.076 1000.46 399.076 1004.3 409.103H972.238C972.238 409.103 969.617 402.055 975.193 399.375C975.193 399.375 977.442 401.314 980.817 399.076Z" fill="#6163A0"/>
<path d="M972.07 407.225H1003.43C1003.59 407.225 1003.74 407.288 1003.85 407.4C1003.97 407.512 1004.03 407.664 1004.03 407.823C1004.03 407.982 1003.97 408.134 1003.85 408.246C1003.74 408.358 1003.59 408.421 1003.43 408.421H972.07C971.911 408.421 971.759 408.358 971.647 408.246C971.535 408.134 971.472 407.982 971.472 407.823C971.472 407.664 971.535 407.512 971.647 407.4C971.759 407.288 971.911 407.225 972.07 407.225Z" fill="#40456F"/>
<path d="M1029.73 225.824C1041.59 222.306 1045.94 189.235 1042.99 179.017L1038.2 174.662C1038.2 174.662 1036.46 179.963 1033.88 186.029C1030.96 192.837 1026.96 200.602 1023.11 202.78C1020.72 204.192 1017.81 201.523 1014.59 197.611C1008.45 190.133 1000.93 178.108 992.063 181.231C965.776 190.504 1012.16 231.041 1029.73 225.824Z" fill="#ED8150"/>
<path d="M1023.22 207.901C1032.17 205.855 1033.84 186.603 1033.86 186.041C1030.94 192.849 1026.94 200.614 1023.09 202.792C1020.7 204.204 1017.79 201.536 1014.57 197.623C1012.51 195.413 1010.58 193.079 1008.8 190.636L998.739 193.029C998.739 193.029 1012.65 210.318 1023.22 207.901Z" fill="#C9643E"/>
<path d="M984.667 167.842C984.667 167.842 977.488 182.487 987.467 196.462L992.408 208.822C992.408 208.822 1009.33 196.414 1011.15 187.464C1011.15 187.464 1002.28 175.487 984.667 167.842Z" fill="#5DADDC"/>
<path d="M1002.16 200.482L992.436 208.858L984.67 167.842C984.67 167.842 989.373 174.064 993.417 176.469C999.363 184.832 1001.54 189.534 1002.16 200.482Z" fill="#54A1CE"/>
<path d="M1037.22 173.824C1038.76 169.792 1041.9 163.833 1046.37 162.972C1048.53 162.565 1048.6 163.977 1046.83 165.137C1043.41 167.363 1043.46 168.93 1047.19 166.813C1048.26 166.202 1051.88 165.281 1052.3 165.975C1053.18 167.459 1048.01 169.373 1046.43 170.546C1045.58 172.041 1051.1 169.624 1052.04 170.163C1054.19 171.359 1046.83 174.518 1046.8 175.116C1046.74 176.779 1051.7 172.137 1051.59 174.925C1051.51 176.947 1044.57 179.388 1043.21 180.632C1042.15 181.661 1042.02 183.025 1040.43 183.025C1036.99 182.929 1036.56 175.475 1037.22 173.824Z" fill="#ED8150"/>
<path d="M1037.52 177.594C1038.04 178.599 1039.47 177.917 1039.33 176.948C1039.64 175.762 1039.58 174.507 1039.15 173.359C1038.87 172.689 1038.43 172.162 1038.19 171.408C1037.93 170.383 1037.93 169.31 1038.19 168.285C1038.3 167.639 1037.77 166.766 1036.99 167.089C1033.52 168.429 1036.37 175.452 1037.52 177.594Z" fill="#ED8150"/>
<path d="M929.631 249.539C929.631 249.539 924.498 279.451 921.662 321.412C920.059 345.127 925.766 393.872 925.766 393.872L934.142 391.599L973.626 254.122L929.631 249.539Z" fill="#8A6765"/>
<path d="M1006.48 250.974C1006.48 250.974 979.07 264.733 924.007 254.91C924.007 254.91 924.007 158.21 974.93 165.173C1012.14 170.306 988.821 216.036 1006.48 250.974Z" fill="#5DADDC"/>
<path d="M979.882 166.215C980.024 169.218 979.293 172.198 977.776 174.794C974.713 170.803 970.87 167.478 966.481 165.019C967.443 163.302 967.963 161.373 967.994 159.406C968.026 157.439 967.568 155.494 966.661 153.748L979.248 151.666C979.248 151.666 978.051 159.647 979.882 166.215Z" fill="#C9643E"/>
<path d="M977.838 132.834C983.006 135.119 984.586 142.861 981.427 150.099C978.268 157.338 971.412 161.358 966.244 159.061C961.075 156.764 959.495 149.035 962.654 141.796C965.813 134.557 972.657 130.537 977.838 132.834Z" fill="#ED8150"/>
<path d="M965.501 141.949C963.216 143.834 961.109 145.924 959.207 148.195C959.146 148.281 959.103 148.38 959.083 148.484C959.063 148.589 959.066 148.696 959.091 148.799C959.116 148.903 959.162 148.999 959.228 149.083C959.293 149.166 959.376 149.235 959.47 149.284C960.982 150.144 962.588 150.826 964.256 151.318C965.824 151.521 965.501 141.949 965.501 141.949Z" fill="#ED8150"/>
<path d="M975.885 151.26C975.637 152.104 975.145 152.856 974.47 153.42C973.795 153.985 972.967 154.336 972.093 154.431C971.218 154.525 970.335 154.359 969.555 153.951C968.775 153.544 968.133 152.915 967.71 152.143C967.288 151.372 967.103 150.492 967.18 149.616C967.258 148.739 967.593 147.905 968.144 147.219C968.694 146.533 969.436 146.026 970.275 145.761C971.114 145.496 972.013 145.486 972.858 145.732C973.989 146.068 974.943 146.837 975.51 147.873C976.077 148.908 976.211 150.125 975.885 151.26V151.26Z" fill="url(#paint0_radial_11_15878)"/>
<path d="M966.72 135.991C965.723 136.939 964.829 137.99 964.052 139.126C965.223 139.666 966.494 139.957 967.783 139.98C969.073 140.002 970.353 139.756 971.542 139.257C977.692 136.865 982.394 141.902 982.394 141.902L982.646 137.176L968.934 131.014L966.72 135.991Z" fill="#DC3F53"/>
<path d="M980.899 144.188C980.13 144.004 979.444 143.571 978.946 142.956C978.448 142.342 978.168 141.58 978.147 140.79C977.836 137.834 974.175 137.296 971.267 138.146C968.36 138.995 965.572 139.342 962.976 137.057C960.989 135.31 970.334 127.401 973.493 127.652C984.429 128.502 988.365 134.245 989.765 137.141C991.775 141.268 988.748 143.554 987.671 144.75C984.369 148.411 985.206 150.505 986.14 152.372C987.073 154.238 984.644 157.744 980.791 156.871C974.617 155.459 981.82 147.682 980.899 144.188Z" fill="#3F2B2A"/>
<path d="M979.167 146.773C979.167 146.773 981.692 144.955 982.912 147.072C984.132 149.19 980.519 154.371 978.222 151.942C975.924 149.513 979.167 146.773 979.167 146.773Z" fill="#ED8150"/>
<path d="M924.056 254.934C924.056 254.934 922.788 212.638 940.938 181.948L959.077 173.572C959.077 173.572 956.684 205.315 940.807 224.71C934.477 232.452 941.836 257.853 941.836 257.853L924.056 254.934Z" fill="#54A1CE"/>
<path d="M925.767 392.615L927.442 402.163H931.964L934.118 391.598L925.767 392.615Z" fill="#ED8150"/>
<path d="M923.996 395.438C923.744 395.342 923.514 395.195 923.321 395.006C923.128 394.817 922.975 394.59 922.873 394.34C922.771 394.09 922.722 393.822 922.728 393.552C922.733 393.282 922.795 393.016 922.907 392.77C922.718 392.139 922.657 391.475 922.728 390.82C922.907 390.21 935.638 389.085 936.332 390.82C937.026 392.555 935.794 393.081 935.794 393.081C935.794 393.081 937.337 394.278 935.722 394.72C934.107 395.163 928.232 396.659 923.996 395.438Z" fill="#745751"/>
<path d="M926.901 399.076C926.901 399.076 907.243 399.076 903.402 409.103H935.468C935.468 409.103 938.088 402.055 932.513 399.375C932.513 399.375 930.263 401.314 926.901 399.076Z" fill="#6163A0"/>
<path d="M904.551 406.973H935.875C936.034 406.973 936.186 407.036 936.298 407.148C936.411 407.26 936.474 407.412 936.474 407.571C936.474 407.73 936.411 407.882 936.298 407.994C936.186 408.106 936.034 408.169 935.875 408.169H904.551C904.393 408.169 904.24 408.106 904.128 407.994C904.016 407.882 903.953 407.73 903.953 407.571C903.953 407.412 904.016 407.26 904.128 407.148C904.24 407.036 904.393 406.973 904.551 406.973Z" fill="#40456F"/>
<path d="M975.446 127.88C975.446 127.88 963.959 125.403 960.322 137.859C960.322 137.859 977.587 145.732 982.852 144.416L985.915 136.794L975.446 127.88Z" fill="#3F2B2A"/>
<path d="M971.437 129.326C969.709 129.999 968.057 130.854 966.508 131.875C965.249 132.978 964.283 134.375 963.696 135.943C963.385 136.613 964.378 137.235 964.689 136.553C965.237 135.009 966.202 133.646 967.477 132.616C968.914 131.737 970.423 130.981 971.988 130.355C972.67 130.032 972.072 129.015 971.437 129.326Z" fill="#332322"/>
<path d="M969.054 133.298C967.9 134.215 967.063 135.47 966.661 136.887C966.629 137.033 966.653 137.185 966.73 137.313C966.806 137.441 966.928 137.535 967.071 137.576C967.215 137.617 967.368 137.602 967.501 137.534C967.633 137.466 967.735 137.35 967.785 137.21C968.157 136.001 968.903 134.942 969.915 134.183C970.442 133.692 969.676 132.843 969.054 133.298Z" fill="#332322"/>
<path d="M903.369 144.714C898.786 129.555 900.006 115.508 899.779 98.4221L906.539 95.3711C906.539 95.3711 913.443 121.179 919.581 132.917C924.068 141.52 950.271 153.413 949.218 163.057C946.143 191.772 908.86 162.865 903.369 144.714Z" fill="#ED8150"/>
<path d="M963.696 166.371C963.696 166.371 960.107 186.329 940.532 182.476L919.426 169.745C919.426 169.745 925.887 150.924 934.37 144.727C934.406 144.727 946.945 151.475 963.696 166.371Z" fill="#5DADDC"/>
<mask id="path-60-inside-1_11_15878" fill="white">
<path fill-rule="evenodd" clip-rule="evenodd" d="M30.8604 108.069C19.315 107.925 10 98.5217 10 86.9424C10 75.2737 19.4593 65.8145 31.1279 65.8145C33.2786 65.8145 35.3542 66.1358 37.3094 66.7331C40.2776 50.3915 54.5812 38 71.7791 38C91.1283 38 106.814 53.6857 106.814 73.0349C106.814 73.1303 106.814 73.2257 106.813 73.321C107.079 73.3089 107.347 73.3027 107.616 73.3027C117.217 73.3027 125 81.0857 125 90.6865C125 100.287 117.217 108.07 107.616 108.07C107.347 108.07 107.08 108.064 106.814 108.052V108.069H71.9932C71.9219 108.07 71.8505 108.07 71.7791 108.07C71.7076 108.07 71.6362 108.07 71.5649 108.069H31.3501C31.2761 108.07 31.2021 108.07 31.1279 108.07C31.0537 108.07 30.9797 108.07 30.9057 108.069H30.8604V108.069Z"/>
</mask>
<path d="M30.8604 108.069H32.8604V106.093L30.8852 106.069L30.8604 108.069ZM37.3094 66.7331L36.7251 68.6458L38.8754 69.3028L39.2772 67.0905L37.3094 66.7331ZM106.813 73.321L104.813 73.305L104.796 75.4148L106.904 75.3189L106.813 73.321ZM106.814 108.052L106.905 106.054L104.814 105.959V108.052H106.814ZM106.814 108.069V110.069H108.814V108.069H106.814ZM71.9932 108.069L71.9932 106.069L71.9813 106.069L71.9932 108.069ZM71.5649 108.069L71.5769 106.069H71.5649V108.069ZM31.3501 108.069V106.069H31.3398L31.3295 106.069L31.3501 108.069ZM30.9057 108.069L30.9263 106.069L30.916 106.069H30.9057V108.069ZM30.8604 108.069H28.8604V110.069H30.8604V108.069ZM30.8852 106.069C20.4333 105.939 12 97.4254 12 86.9424H8C8 99.6179 18.1968 109.912 30.8355 110.068L30.8852 106.069ZM12 86.9424C12 76.3783 20.5639 67.8145 31.1279 67.8145V63.8145C18.3547 63.8145 8 74.1692 8 86.9424H12ZM31.1279 67.8145C33.0784 67.8145 34.9572 68.1058 36.7251 68.6458L37.8937 64.8204C35.7513 64.1659 33.4788 63.8145 31.1279 63.8145V67.8145ZM39.2772 67.0905C42.0757 51.683 55.5651 40 71.7791 40V36C53.5974 36 38.4794 49.0999 35.3416 66.3757L39.2772 67.0905ZM71.7791 40C90.0237 40 104.814 54.7902 104.814 73.0349H108.814C108.814 52.5811 92.2329 36 71.7791 36V40ZM104.814 73.0349C104.814 73.125 104.814 73.215 104.813 73.305L108.813 73.337C108.814 73.2364 108.814 73.1357 108.814 73.0349H104.814ZM106.904 75.3189C107.14 75.3082 107.377 75.3027 107.616 75.3027V71.3027C107.317 71.3027 107.018 71.3096 106.722 71.323L106.904 75.3189ZM107.616 75.3027C116.112 75.3027 123 82.1903 123 90.6865H127C127 79.9811 118.321 71.3027 107.616 71.3027V75.3027ZM123 90.6865C123 99.1827 116.112 106.07 107.616 106.07V110.07C118.321 110.07 127 101.392 127 90.6865H123ZM107.616 106.07C107.378 106.07 107.14 106.065 106.905 106.054L106.723 110.05C107.019 110.063 107.317 110.07 107.616 110.07V106.07ZM104.814 108.052V108.069H108.814V108.052H104.814ZM106.814 106.069H71.9932V110.069H106.814V106.069ZM71.9813 106.069C71.9139 106.07 71.8465 106.07 71.7791 106.07V110.07C71.8545 110.07 71.9299 110.07 72.0052 110.069L71.9813 106.069ZM71.7791 106.07C71.7116 106.07 71.6442 106.07 71.5769 106.069L71.5529 110.069C71.6283 110.07 71.7036 110.07 71.7791 110.07V106.07ZM71.5649 106.069H31.3501V110.069H71.5649V106.069ZM31.3295 106.069C31.2624 106.07 31.1952 106.07 31.1279 106.07V110.07C31.2089 110.07 31.2899 110.07 31.3707 110.069L31.3295 106.069ZM31.1279 106.07C31.0606 106.07 30.9934 106.07 30.9263 106.069L30.8851 110.069C30.9659 110.07 31.0469 110.07 31.1279 110.07V106.07ZM30.9057 106.069H30.8604V110.069H30.9057V106.069ZM32.8604 108.069V108.069H28.8604V108.069H32.8604Z" fill="#DDD9F8" mask="url(#path-60-inside-1_11_15878)"/>
<mask id="path-62-inside-2_11_15878" fill="white">
<path fill-rule="evenodd" clip-rule="evenodd" d="M1111.86 108.069C1100.32 107.925 1091 98.5217 1091 86.9424C1091 75.2737 1100.46 65.8145 1112.13 65.8145C1114.28 65.8145 1116.35 66.1358 1118.31 66.7331C1121.28 50.3915 1135.58 38 1152.78 38C1172.13 38 1187.81 53.6857 1187.81 73.0349C1187.81 73.1303 1187.81 73.2257 1187.81 73.321C1188.08 73.3089 1188.35 73.3027 1188.62 73.3027C1198.22 73.3027 1206 81.0857 1206 90.6865C1206 100.287 1198.22 108.07 1188.62 108.07C1188.35 108.07 1188.08 108.064 1187.81 108.052V108.069H1152.99C1152.92 108.07 1152.85 108.07 1152.78 108.07C1152.71 108.07 1152.64 108.07 1152.56 108.069H1112.35C1112.28 108.07 1112.2 108.07 1112.13 108.07C1112.05 108.07 1111.98 108.07 1111.91 108.069H1111.86V108.069Z"/>
</mask>
<path fill-rule="evenodd" clip-rule="evenodd" d="M1111.86 108.069C1100.32 107.925 1091 98.5217 1091 86.9424C1091 75.2737 1100.46 65.8145 1112.13 65.8145C1114.28 65.8145 1116.35 66.1358 1118.31 66.7331C1121.28 50.3915 1135.58 38 1152.78 38C1172.13 38 1187.81 53.6857 1187.81 73.0349C1187.81 73.1303 1187.81 73.2257 1187.81 73.321C1188.08 73.3089 1188.35 73.3027 1188.62 73.3027C1198.22 73.3027 1206 81.0857 1206 90.6865C1206 100.287 1198.22 108.07 1188.62 108.07C1188.35 108.07 1188.08 108.064 1187.81 108.052V108.069H1152.99C1152.92 108.07 1152.85 108.07 1152.78 108.07C1152.71 108.07 1152.64 108.07 1152.56 108.069H1112.35C1112.28 108.07 1112.2 108.07 1112.13 108.07C1112.05 108.07 1111.98 108.07 1111.91 108.069H1111.86V108.069Z" fill="white"/>
<path d="M1111.86 108.069H1113.86V106.093L1111.89 106.069L1111.86 108.069ZM1118.31 66.7331L1117.73 68.6458L1119.88 69.3028L1120.28 67.0905L1118.31 66.7331ZM1187.81 73.321L1185.81 73.305L1185.8 75.4148L1187.9 75.3189L1187.81 73.321ZM1187.81 108.052L1187.9 106.054L1185.81 105.959V108.052H1187.81ZM1187.81 108.069V110.069H1189.81V108.069H1187.81ZM1152.99 108.069V106.069L1152.98 106.069L1152.99 108.069ZM1152.56 108.069L1152.58 106.069H1152.56V108.069ZM1112.35 108.069V106.069H1112.34L1112.33 106.069L1112.35 108.069ZM1111.91 108.069L1111.93 106.069L1111.92 106.069H1111.91V108.069ZM1111.86 108.069H1109.86V110.069H1111.86V108.069ZM1111.89 106.069C1101.43 105.939 1093 97.4254 1093 86.9424H1089C1089 99.6179 1099.2 109.912 1111.84 110.068L1111.89 106.069ZM1093 86.9424C1093 76.3783 1101.56 67.8145 1112.13 67.8145V63.8145C1099.35 63.8145 1089 74.1692 1089 86.9424H1093ZM1112.13 67.8145C1114.08 67.8145 1115.96 68.1058 1117.73 68.6458L1118.89 64.8204C1116.75 64.1659 1114.48 63.8145 1112.13 63.8145V67.8145ZM1120.28 67.0905C1123.08 51.683 1136.57 40 1152.78 40V36C1134.6 36 1119.48 49.0999 1116.34 66.3757L1120.28 67.0905ZM1152.78 40C1171.02 40 1185.81 54.7902 1185.81 73.0349H1189.81C1189.81 52.5811 1173.23 36 1152.78 36V40ZM1185.81 73.0349C1185.81 73.125 1185.81 73.215 1185.81 73.305L1189.81 73.337C1189.81 73.2364 1189.81 73.1357 1189.81 73.0349H1185.81ZM1187.9 75.3189C1188.14 75.3082 1188.38 75.3027 1188.62 75.3027V71.3027C1188.32 71.3027 1188.02 71.3096 1187.72 71.323L1187.9 75.3189ZM1188.62 75.3027C1197.11 75.3027 1204 82.1903 1204 90.6865H1208C1208 79.9811 1199.32 71.3027 1188.62 71.3027V75.3027ZM1204 90.6865C1204 99.1827 1197.11 106.07 1188.62 106.07V110.07C1199.32 110.07 1208 101.392 1208 90.6865H1204ZM1188.62 106.07C1188.38 106.07 1188.14 106.065 1187.9 106.054L1187.72 110.05C1188.02 110.063 1188.32 110.07 1188.62 110.07V106.07ZM1185.81 108.052V108.069H1189.81V108.052H1185.81ZM1187.81 106.069H1152.99V110.069H1187.81V106.069ZM1152.98 106.069C1152.91 106.07 1152.85 106.07 1152.78 106.07V110.07C1152.85 110.07 1152.93 110.07 1153.01 110.069L1152.98 106.069ZM1152.78 106.07C1152.71 106.07 1152.64 106.07 1152.58 106.069L1152.55 110.069C1152.63 110.07 1152.7 110.07 1152.78 110.07V106.07ZM1152.56 106.069H1112.35V110.069H1152.56V106.069ZM1112.33 106.069C1112.26 106.07 1112.2 106.07 1112.13 106.07V110.07C1112.21 110.07 1112.29 110.07 1112.37 110.069L1112.33 106.069ZM1112.13 106.07C1112.06 106.07 1111.99 106.07 1111.93 106.069L1111.89 110.069C1111.97 110.07 1112.05 110.07 1112.13 110.07V106.07ZM1111.91 106.069H1111.86V110.069H1111.91V106.069ZM1113.86 108.069V108.069H1109.86V108.069H1113.86Z" fill="#DDD9F8" mask="url(#path-62-inside-2_11_15878)"/>
<ellipse opacity="0.08" cx="574.5" cy="402" rx="81.5" ry="13" fill="#2B2B2B"/>
<path fill-rule="evenodd" clip-rule="evenodd" d="M613.253 245.578C619.401 238.13 629.534 230.12 643.311 229.009C644.357 228.924 645.356 229.435 645.908 230.327C650.873 238.349 657.055 253.04 648.024 275.689C656.249 288.238 661 303.047 661 318.908C661 334.843 656.205 349.717 647.908 362.303L636.164 399.316C635.769 400.562 634.612 401.408 633.305 401.408H619.318C617.953 401.408 616.76 400.486 616.415 399.165L614.456 391.655C602.504 397.566 588.914 400.908 574.5 400.908C560.442 400.908 547.167 397.729 535.431 392.088L533.585 399.165C533.24 400.486 532.047 401.408 530.682 401.408H516.695C515.388 401.408 514.231 400.562 513.836 399.316L502.947 364.999C493.514 351.864 488 335.996 488 318.908C488 303.988 492.203 289.999 499.549 277.946C489.171 254.012 495.597 238.612 500.725 230.327C501.277 229.435 502.276 228.924 503.322 229.009C517.613 230.161 527.982 238.737 534.05 246.408C544.034 241.392 555.177 238.175 567 237.212V251.908H581V237.136C592.527 237.948 603.425 240.901 613.253 245.578Z" fill="#F48BC3"/>
<ellipse cx="574.5" cy="329.5" rx="34.5" ry="23.5" fill="#DD6DA8"/>
<ellipse cx="551.5" cy="291.5" rx="3.5" ry="5.5" fill="#2E1B1A"/>
<ellipse cx="596.5" cy="291.5" rx="3.5" ry="5.5" fill="#2E1B1A"/>
<ellipse cx="589" cy="327.5" rx="4" ry="5.5" fill="#893160"/>
<ellipse cx="563" cy="327.5" rx="4" ry="5.5" fill="#893160"/>
<path d="M614.5 392L610 372.5" stroke="#D35F9D"/>
<path d="M536 392L541 373.5" stroke="#D35F9D"/>
<rect x="567" y="241" width="14" height="12" fill="#893160"/>
<path d="M534 246.5L527 253C518.833 244.334 501.1 230.4 495.5 244" stroke="#DD6DA8"/>
<path d="M613 246.628C613 246.628 615.881 247.329 617.5 248.264C619.297 249.303 621.5 251.764 621.5 251.764C638.636 236.264 649 223.265 649 258.265" stroke="#DD6DA8"/>
<path d="M433.441 365.014C433.441 365.014 461.008 374.437 479.358 365.014C479.393 365.014 456.665 345.281 433.441 365.014Z" fill="#40456F"/>
<path d="M477.192 246.867C476.615 273.125 474.272 299.315 470.177 325.258C465.258 355.693 454.049 397.486 454.049 397.486L449.119 398.938C449.119 398.938 443.843 348.804 442.092 322.989C440.422 298.406 433.418 251.429 433.418 251.429L477.192 246.867Z" fill="#ED8150"/>
<path d="M461.282 243.93C461.282 243.93 460.533 264.342 457.193 298.97C453.737 335.027 445.938 377.304 445.938 377.304C445.938 377.304 443.116 333.103 441.33 313.946C439.879 298.037 433.405 251.44 433.405 251.44L461.282 243.93Z" fill="url(#paint1_linear_11_15878)"/>
<path d="M435.041 354.209C434.165 361.121 433.439 365.014 433.439 365.014C446.641 359.612 479.368 365.014 479.368 365.014C479.575 362.25 479.76 359.52 479.921 356.87C479.99 355.81 480.059 354.785 480.105 353.748C486.303 251.569 471.431 228 471.431 228L441.123 237.423L431.331 240.487C435.553 259.831 437.792 279.555 438.013 299.353V299.353C438.307 316.493 437.46 333.633 435.478 350.661C435.317 351.963 435.179 353.115 435.041 354.209Z" fill="#6163A0"/>
<path d="M369.691 356.108C369.691 356.108 393.122 373.387 413.466 370.012C413.454 370.012 397.811 344.346 369.691 356.108Z" fill="#40456F"/>
<path d="M439.661 251.742C439.661 251.742 440.813 284.849 423.476 322.933C413.673 344.463 384.01 386.072 384.01 386.072L378.803 384.264L413.281 240.879L439.661 251.742Z" fill="#ED8150"/>
<path d="M369.704 356.109C383.896 354.957 413.478 370.025 413.478 370.025C414.63 367.237 415.69 364.507 416.727 361.811L417.879 358.851C427.094 334.936 433.557 315.353 438.038 299.421C451.401 252.122 447.449 237.123 447.449 237.123L441.171 237.492L411 239.5C407.222 283.943 386.614 324.453 376.523 343.933L374.645 347.504C371.604 353.022 369.704 356.109 369.704 356.109Z" fill="#6163A0"/>
<path d="M381.603 385.54C381.603 385.54 396.083 393.604 393.514 404.294L369 389.319C369 389.319 370.878 381.865 377.133 382.845C377.133 382.833 377.479 385.459 381.603 385.54Z" fill="#3D2A26"/>
<path d="M371.787 384.469C371.787 384.469 378.699 374.308 381.118 367.846C381.118 367.846 389.85 376.405 395.921 377.73C395.921 377.73 383.71 383.731 385.841 388.915C387.972 394.099 380.081 390.735 380.081 390.735L371.787 384.469Z" fill="#3D2A26"/>
<path d="M454.544 397.107C454.544 397.107 471.109 396.554 474.415 407.026L445.685 406.818C445.685 406.818 443.45 399.48 449.314 397.096C449.314 397.096 450.961 399.169 454.544 397.107Z" fill="#3D2A26"/>
<path d="M445.581 401.243C445.581 401.243 446.25 388.975 444.994 382.189C444.994 382.189 454.625 384.993 460.5 383C460.5 383 456.5 393 459.9 397.81C464.393 401.151 455.938 402.326 455.938 402.326L445.581 401.243Z" fill="#3D2A26"/>
<ellipse opacity="0.08" cx="420" cy="405.5" rx="62" ry="9.5" fill="#2B2B2B"/>
<path d="M488.804 223.975C487.647 225.421 481.86 228.014 480.321 227.782C469.779 226.243 464.119 217.159 459.93 212.865C459.239 212.162 458.597 211.412 458.009 210.62C455.579 207.355 454.011 203.53 453.449 199.499C453.148 197.585 453.063 195.645 453.195 193.712C453.195 193.712 447.304 164.549 453.38 167.35C459.456 170.15 467.105 182.741 472.66 192.335C472.834 192.613 472.973 192.891 473.135 193.145C473.482 193.747 473.817 194.302 474.141 194.881C474.998 196.374 475.808 197.786 476.537 198.989C478.111 201.663 482.103 207.773 482.103 207.773C482.103 207.773 493.665 218.084 488.804 223.975Z" fill="#EE8C6D"/>
<path d="M453.217 193.782C453.093 195.714 453.178 197.655 453.472 199.568C454.125 204.673 456.262 209.473 459.617 213.375C463.714 218.004 477.752 195.483 473.724 189.836C467.591 181.214 459.397 170.162 453.403 167.431C447.408 164.7 453.217 193.782 453.217 193.782Z" fill="#7C8544"/>
<path d="M479.5 245C479.5 245 431.844 259.211 406.5 245C406.5 245 423.141 223.162 422.482 206.208C422.482 205.456 422.389 204.704 422.296 203.894C422.123 202.413 421.845 200.885 421.521 199.323C418.049 182.079 409.485 160.797 445.824 162.961C445.824 162.961 466.203 173.11 465.752 184.475C465.301 195.839 456.899 197.517 463.333 210.317C467.942 219.256 474.016 236.568 479.5 245Z" fill="#7C8544"/>
<path d="M464.5 181C466.167 184.167 466.316 192.005 462.5 198C459 203.5 461.167 209.833 463.5 212.5" stroke="#605F31"/>
<path d="M393.779 226.308C400.331 238.291 436.528 232.077 436.528 232.077L436.762 225.916C436.762 225.916 416.006 225.128 412.73 217.814C412.143 216.485 416.008 202.564 420.262 199.343C422.156 197.926 424.096 196.514 425.867 195.35C430.085 192.565 426.985 190.566 428.5 185.743C429.71 181.856 429.854 177.715 428.918 173.753C428.652 172.698 428.14 171.722 427.423 170.904C426.705 170.087 425.803 169.452 424.792 169.052C423.78 168.652 422.688 168.499 421.606 168.605C420.524 168.711 419.482 169.073 418.567 169.662C411 174.469 404.348 185.426 403.972 185.743C392.608 197.462 387.208 214.277 393.779 226.308Z" fill="#EE8C6D"/>
<path d="M420.155 203.27C421.74 201.754 431.727 191.987 433.232 182.277C433.926 177.856 432.56 167.233 427.063 165.913C418.245 163.877 406.476 176.664 398.352 186.316C402.078 194.729 410.26 200.608 420.155 203.27Z" fill="#7C8544"/>
<path d="M460.961 231.254L438.059 232.643L459.977 238.788L460.961 231.254Z" fill="#C7C1B7"/>
<path d="M438.057 232.641L437.941 234.816L459.987 241.552L459.976 238.786L438.057 232.641Z" fill="#E0DACE"/>
<path d="M507.367 235.918L459.977 238.788L459.988 241.554L507.355 238.383L507.367 235.918Z" fill="#E0DACE"/>
<path d="M438 300C443 288 445.4 285.8 449 257" stroke="#51538B"/>
<path d="M422 201.5C425.167 198.667 431.9 190.8 433.5 182" stroke="#605F31"/>
<path d="M455.915 143.306C456.219 145.605 456.169 147.58 455.009 150.884C453.744 154.481 450.061 153.584 446.821 155.346C439.431 159.364 435.939 169.795 427.96 172.99C427.635 173.121 417.308 172.049 422.417 162.23C421.482 161.243 422.974 153.142 427.89 150.688C430.96 149.156 433.725 151.872 428.413 145.573C424.09 140.447 424.748 135.219 427.163 131.324C429.468 127.61 433.021 123.647 437.698 122.889C438.597 122.742 445.253 120.624 451.109 123.5C456.46 126.127 457.425 130.982 456.857 136.846C456.614 139.348 455.96 143.079 455.915 143.306Z" fill="#3F2B2A"/>
<path d="M440.415 146.408C438.198 147.038 438.904 147.157 437.429 154.127C436.658 157.77 435.499 162.068 434.272 164.887C433.316 167.087 435.061 169.485 436.711 171.432C438.606 173.665 446.024 181.083 450.053 179.866C452.434 179.146 449.876 171.117 447.323 167.452C443.386 161.798 448.767 158.297 448.959 149.894C449.058 145.589 443.186 145.621 440.415 146.408Z" fill="#EE8C6D"/>
<path d="M439 147.995C441.224 144.594 445.058 142.965 446.187 138.148C446.997 134.691 450.268 131.288 452.713 133.958L454.697 136.932C459.804 141.078 460.991 154.012 454.807 158.201C451.516 160.429 446.394 157.643 442.561 154.193C441.663 153.385 441.055 152.748 439.594 149.505C439.34 148.94 439 147.995 439 147.995Z" fill="#EE8C6D"/>
<path d="M449.698 143.505C449.736 144.18 449.254 144.689 448.619 144.645C447.985 144.602 447.439 144.018 447.402 143.344C447.364 142.671 447.846 142.16 448.481 142.204C449.115 142.25 449.66 142.832 449.698 143.505Z" fill="#181826"/>
<path d="M455.636 142.317C455.673 142.993 455.191 143.502 454.557 143.458C453.922 143.414 453.377 142.83 453.339 142.157C453.301 141.484 453.784 140.973 454.418 141.017C455.052 141.062 455.598 141.644 455.636 142.317Z" fill="#181826"/>
<path d="M451.097 150.258C451.336 149.727 451.886 150.867 453 150.853C454.186 150.838 454.751 149.617 454.946 150.122C455.111 150.547 454.863 151.54 454.648 152.144C454.326 153.042 453.902 153.646 453.285 153.923C452.526 154.26 451.789 153.437 451.399 152.532C451.104 151.843 450.856 150.794 451.097 150.258Z" fill="#3F2B2A"/>
<path d="M441 152C441.8 153.296 444.12 156.111 447 157" stroke="#C2684B"/>
<path d="M452 143C452.349 144.111 453.361 146.467 454.617 147C455.873 147.533 453.744 148.556 452.523 149" stroke="#C2684B"/>
<path d="M454.891 226.636C453.436 225.985 451.868 225.624 450.275 225.572C450.09 225.507 449.902 225.454 449.711 225.411C449.835 225.251 449.982 225.094 450.095 224.933C450.749 223.845 451.063 221.901 449.706 221.157C448.35 220.412 447.091 222.173 446.21 223.012C445.205 224.039 444.01 224.862 442.692 225.436C441.335 225.712 439.952 225.84 438.567 225.817C437.583 225.863 435.967 225.728 435.259 226.588C434.711 227.554 434.484 228.67 434.61 229.774C434.718 230.288 434.948 230.769 435.28 231.176C435.613 231.583 436.039 231.904 436.522 232.112C437.287 232.572 438.112 232.925 438.972 233.162C440.439 233.898 442.087 234.196 443.718 234.02C444.068 233.966 444.412 233.874 444.742 233.746C446.073 234.506 447.592 234.878 449.124 234.817C449.278 234.812 449.428 234.773 449.564 234.701C449.699 234.629 449.816 234.526 449.905 234.402C449.995 234.277 450.054 234.133 450.079 233.982C450.103 233.83 450.093 233.675 450.047 233.528C450.367 233.485 450.671 233.36 450.93 233.168C451.202 232.932 451.378 232.605 451.424 232.248C451.728 232.127 452.014 231.965 452.274 231.766C452.684 231.45 452.995 231.024 453.171 230.537C453.347 230.05 453.38 229.523 453.267 229.018C454.633 229.954 455.809 231.143 456.73 232.52C456.837 232.67 456.98 232.791 457.147 232.869C457.314 232.948 457.499 232.983 457.683 232.97C457.867 232.956 458.045 232.896 458.199 232.795C458.353 232.693 458.479 232.553 458.563 232.389C459.903 230.148 456.627 227.519 454.891 226.636Z" fill="#EE8C6D"/>
<path d="M507.365 235.917L459.975 238.787L463.62 213.049C463.678 212.617 463.884 212.219 464.202 211.921C464.521 211.624 464.933 211.446 465.367 211.418L508.997 208.825C509.272 208.809 509.548 208.854 509.804 208.957C510.061 209.06 510.291 209.219 510.479 209.421C510.667 209.623 510.808 209.865 510.892 210.128C510.976 210.391 511 210.669 510.964 210.943L507.365 235.917Z" fill="#E0DACE"/>
<path d="M490.793 238.185C490.874 237.734 491.302 236.958 491.95 237.028C492.027 237.043 492.102 237.07 492.17 237.109C492.112 236.799 492.112 236.481 492.17 236.171C492.332 235.512 492.969 234.551 493.883 235.095C494.235 235.322 494.525 235.632 494.728 235.998C494.792 235.679 494.939 235.383 495.155 235.139C495.37 234.895 495.646 234.712 495.954 234.609C497.031 234.216 497.54 234.887 497.829 235.685C498.014 234.887 498.477 233.741 499.53 234.308C500.082 234.726 500.519 235.275 500.803 235.905C501.233 236.631 501.567 237.409 501.799 238.22C501.804 238.25 501.804 238.282 501.799 238.312C501.842 238.355 501.871 238.41 501.883 238.47C501.896 238.529 501.89 238.591 501.868 238.648C501.544 239.493 500.514 240.372 499.553 239.608C499.29 239.413 499.049 239.187 498.836 238.937C498.905 239.689 498.732 240.349 497.91 240.511C497.48 240.544 497.049 240.453 496.669 240.248C496.29 240.043 495.977 239.732 495.769 239.354V239.354C495.538 239.689 495.237 240.141 494.705 240.129C494.496 240.104 494.295 240.038 494.112 239.934C493.93 239.831 493.769 239.693 493.64 239.527C493.635 239.572 493.621 239.616 493.596 239.654C493.572 239.692 493.54 239.724 493.501 239.747C493.229 239.922 492.915 240.018 492.592 240.026C492.269 240.034 491.951 239.952 491.671 239.791C491.391 239.63 491.162 239.395 491.007 239.111C490.852 238.828 490.778 238.508 490.793 238.185Z" fill="#EE8C6D"/>
<path d="M258 210C264 203.833 275.6 192.9 306 182.5L313 193L279.5 219" stroke="#883223"/>
<path d="M285 182.5L279 194.5" stroke="#883223"/>
<path d="M323.5 280.5C324.5 286 320.5 298 314 305.5" stroke="#4A5396"/>
<path d="M365 100C365.833 100.667 367.4 101.2 367 98C367.667 99 369.2 100.6 370 99C370.833 100 372.6 101.4 373 99C373.667 99.6667 375.2 100.6 376 99" stroke="#CC7551"/>
<path d="M302.949 137C299.122 137 299.72 126.612 296.649 122.904C295.525 121.548 295.925 117.484 297.36 116.318C298.537 115.362 296.791 113.368 297.424 111.674C297.998 110.138 300.518 110.312 301.124 108.859C301.269 108.512 301.611 107.934 304.755 106.646C307.695 105.442 309.165 104.839 310.345 105.037C312.64 105.422 312.82 107.163 314.775 107.19C316.781 107.217 316.959 106.964 319.162 106.794C321.013 106.651 324.562 108.489 324.531 110.649C324.504 112.665 326.971 112.933 327.852 116.566C328.654 119.876 325.932 123.455 325.938 125.037C325.953 129.386 320.764 130.095 320.418 130.262C312.998 133.84 306.875 137 302.949 137Z" fill="#723E3B"/>
<path d="M303.554 128.434C301.683 131.109 303.681 132.869 302.586 139.965C302.093 143.163 301.656 145.371 300.639 147.927C299.789 150.063 300.404 151.6 297.501 153.167C294.979 154.53 302.742 156.3 303.988 156.332C310.016 156.484 312.813 156.171 316.297 154.644C318.252 153.786 318.718 150.466 318.602 149.382C318.465 148.1 317.818 149.716 315.522 147.553C313.965 146.087 313.789 144.142 313.714 134.369C313.664 127.895 313.724 126.407 312.508 125.578C310.384 124.128 305.588 125.526 303.554 128.434Z" fill="#EE8660"/>
<path d="M323.691 124.342C324.4 126.606 326 128.869 324.111 134.57C323.782 135.561 321.263 143.491 315.418 143.969C311.198 144.313 308.063 141.757 306.187 139.88C304.713 138.405 301.437 133.346 302.084 126.032C302.258 124.059 304.233 117.977 305.923 118.257C314.303 119.642 316.775 116.54 320.596 118.952C323.323 120.672 323.17 122.673 323.691 124.342Z" fill="#EE8660"/>
<path d="M303.03 134.433C304.773 138.091 305.86 140.84 309.56 142.836C312.196 144.258 315.19 144.461 317.861 142.977C318.18 142.799 317.893 142.308 317.574 142.486C314.572 144.154 311.303 143.387 308.589 141.559C305.772 139.659 304.913 137.067 303.52 134.146C303.364 133.816 302.874 134.105 303.03 134.433Z" fill="#A53923"/>
<path d="M312.998 127.032C312.963 127.584 312.488 128.017 311.937 127.999C311.385 127.982 310.967 127.52 311.002 126.968C311.035 126.416 311.512 125.983 312.064 126.001C312.613 126.018 313.031 126.481 312.998 127.032Z" fill="#181826"/>
<path d="M319.999 127.032C319.981 127.584 319.744 128.017 319.468 127.999C319.193 127.982 318.983 127.52 319.001 126.968C319.018 126.416 319.256 125.983 319.531 126.001C319.807 126.018 320.016 126.481 319.999 127.032Z" fill="#181826"/>
<path d="M308.794 123.733C308.893 122.668 310.25 122.358 311.521 122.704C311.999 122.833 312.205 122.297 311.733 122.168C309.879 121.663 308.13 122.329 308.001 123.733C307.969 124.09 308.762 124.088 308.794 123.733Z" fill="#723E3B"/>
<path d="M319.621 123.578C320.536 123.256 322.74 123.924 322.035 124.638C321.765 124.908 322.489 125.153 322.757 124.882C323.871 123.756 320.892 122.562 319.198 123.16C318.74 123.322 319.159 123.742 319.621 123.578Z" fill="#723E3B"/>
<path d="M316.015 127.202C315.966 129.277 315.994 131.291 316.802 132.932C316.903 133.135 317.069 132.839 316.969 132.636C316.209 131.092 316.206 129.135 316.251 127.202C316.258 126.932 316.022 126.934 316.015 127.202Z" fill="#A53923"/>
<path d="M316.995 132.451C317.525 132.308 317.711 132.507 317.513 133.099C317.295 133.76 316.58 133.62 316.146 133.585C315.951 133.57 315.952 133.969 316.146 133.984C316.829 134.039 317.882 134.019 317.994 132.775C318.07 131.911 317.385 131.939 316.913 132.067C316.721 132.118 316.803 132.502 316.995 132.451Z" fill="#A53923"/>
<path d="M311.18 136.592C311.483 136.393 312.193 135.807 313.27 136.064C314.418 136.339 314.864 137.149 314.984 137.439C315.084 137.682 314.683 138.228 314.393 138.467C313.961 138.823 313.468 139.013 312.834 138.999C312.056 138.983 311.455 138.412 311.204 137.883C311.012 137.481 310.873 136.794 311.18 136.592Z" fill="#F5FBFC"/>
<rect x="273" y="389" width="16" height="7" fill="#216DB6"/>
<rect x="319" y="389" width="16" height="7" fill="#216DB6"/>
<path d="M632.35 267.719C631.419 267.898 630.357 270.284 631.491 271.299C632.088 271.705 632.797 271.914 633.519 271.896C633.519 271.967 632.601 273.757 634.247 274.378C635.894 274.999 637.303 273.077 638.699 272.468C642.864 270.642 646.349 271.096 646.611 272.039C646.874 272.982 645.132 274.426 644.129 274.426C643.833 274.457 643.552 274.571 643.318 274.755C643.084 274.938 642.906 275.184 642.804 275.464C642.709 275.742 642.719 276.046 642.834 276.317C642.948 276.588 643.159 276.807 643.425 276.932C644.225 277.409 647.483 276.753 648.652 275.261C653.426 269.127 655.694 262.479 654.954 259.544C654.643 258.35 652.567 258.135 647.59 261.477C643.532 260.355 635.417 259.711 635.083 263.327C632.481 263.231 630.727 266.215 632.35 267.719Z" fill="#ED8150"/>
<path d="M650.25 246.929C649.227 251.668 649.009 256.546 649.606 261.358L655.573 265.153C655.573 265.153 657.375 261.095 661.182 254.328L662.375 252.24C662.805 251.548 663.211 250.844 663.652 250.151C665.132 247.681 689.311 212.534 689.908 211.174C691.544 208.786 693.377 206.539 695.386 204.455C703.633 196.614 720.03 182.424 714.576 172.781C696.615 141.191 655.024 221.939 650.25 246.929Z" fill="#CC6151"/>
<path d="M686.15 187.234C686.15 187.234 672.831 210.829 664.979 248.1L680.648 225.007L688.322 195.433L686.15 187.234Z" fill="#AC4333"/>
<path d="M754.391 378.088L763.544 381.048L765.633 377.074L757.362 370.295L754.391 378.088Z" fill="#ED8150"/>
<path d="M761.241 380.188C761.241 380.188 757.41 399.283 766.42 404.999L772.674 373.803C772.674 373.803 766.325 369.888 762.625 374.781C762.637 374.769 764.081 377.335 761.241 380.188Z" fill="#F0A145"/>
<path d="M770.874 373.313L764.823 403.77C764.793 403.928 764.827 404.092 764.918 404.225C765.008 404.358 765.148 404.45 765.307 404.48C765.465 404.51 765.628 404.476 765.762 404.385C765.895 404.294 765.987 404.155 766.017 403.996L771.984 373.54C771.991 373.403 771.949 373.268 771.865 373.16C771.781 373.051 771.661 372.977 771.526 372.949C771.392 372.922 771.252 372.943 771.133 373.01C771.013 373.077 770.921 373.184 770.874 373.313V373.313Z" fill="#40456F"/>
<path d="M754.522 248.911C754.522 248.911 756.468 278.974 754.904 320.637C754.021 344.195 743.328 391.682 743.328 391.682L735.32 388.579L710.688 248.84L754.522 248.911Z" fill="#3F2524"/>
<path d="M725.869 334.957L750.263 356.833L747.602 371.094L729.724 356.833L725.869 334.957Z" fill="#2E1B1A"/>
<path d="M743.456 390.417L740.818 399.666L736.343 399.2L735.316 388.543L743.456 390.417Z" fill="#ED8150"/>
<path d="M744.914 391.539C745.172 391.468 745.412 391.346 745.621 391.179C745.829 391.012 746.002 390.804 746.127 390.568C746.252 390.332 746.328 390.073 746.349 389.807C746.37 389.541 746.337 389.273 746.251 389.02C746.506 388.42 746.64 387.775 746.645 387.123C746.525 386.49 734.09 384.056 733.219 385.703C732.347 387.35 733.517 387.982 733.517 387.982C733.517 387.982 731.87 389.032 733.421 389.605C734.973 390.178 740.594 392.302 744.914 391.539Z" fill="#2E1B1A"/>
<path d="M742.219 394.832C742.219 394.832 761.707 394.832 765.526 404.785H733.721C733.721 404.785 731.12 397.792 736.645 395.13C736.645 395.13 738.877 397.052 742.219 394.832Z" fill="#F0A145"/>
<path d="M764.38 402.66H733.351C733.192 402.66 733.041 402.723 732.929 402.835C732.817 402.947 732.754 403.099 732.754 403.257C732.754 403.415 732.817 403.567 732.929 403.679C733.041 403.791 733.192 403.854 733.351 403.854H764.38C764.538 403.854 764.69 403.791 764.802 403.679C764.914 403.567 764.977 403.415 764.977 403.257C764.977 403.099 764.914 402.947 764.802 402.835C764.69 402.723 764.538 402.66 764.38 402.66Z" fill="#40456F"/>
<path d="M680.65 246.523C680.65 246.523 681.629 293.067 688.324 334.277C692.394 359.339 753.223 377.312 753.223 377.312L759.966 370.426C759.966 370.426 714.699 338.203 715.594 322.378C716.991 297.841 724.247 251.059 724.247 251.059L680.65 246.523Z" fill="#3F2524"/>
<path d="M718.456 292.948C718.456 292.948 715.58 315.624 715.591 323.118C715.603 330.613 725.867 340.96 725.867 340.96C725.867 340.96 714.541 331.091 709.767 320.254C704.994 309.418 712.309 253.541 712.309 253.541L718.456 292.948Z" fill="#2E1B1A"/>
<path d="M755.8 380.021C755.58 380.175 755.331 380.282 755.067 380.335C754.804 380.387 754.533 380.385 754.271 380.328C754.008 380.271 753.761 380.16 753.543 380.002C753.326 379.845 753.143 379.644 753.008 379.413C752.385 379.221 751.808 378.904 751.313 378.482C750.919 377.98 757.137 366.941 758.951 367.347C760.765 367.753 760.49 369.053 760.49 369.053C760.49 369.053 762.364 368.481 761.779 370.032C761.194 371.584 759.178 377.24 755.8 380.021Z" fill="#2E1B1A"/>
<path d="M759.499 253.685C753.532 254.747 747.852 255.534 742.493 256.071C741.705 256.167 740.942 256.262 740.178 256.31C733.003 257.009 725.796 257.316 718.588 257.229C717.777 257.229 716.977 257.229 716.202 257.229C707.295 257.051 698.425 256.04 689.707 254.21C688.92 254.043 688.192 253.852 687.464 253.673C683.29 252.768 679.219 251.441 675.314 249.71C675.887 245.247 676.508 240.975 676.997 236.881C677.117 236.093 677.212 235.33 677.307 234.578C678.405 226.367 679.456 218.896 680.566 212.153C680.697 211.341 680.84 210.554 680.947 209.766C682.241 201.345 684.262 193.051 686.986 184.978C687.261 184.239 687.535 183.499 687.846 182.783C693.228 169.655 701.296 163.115 715.593 162.494C719.819 162.219 724.056 162.829 728.033 164.286C732.01 165.743 735.638 168.015 738.686 170.956C739.151 171.373 739.605 171.839 740.046 172.292C744.947 177.712 748.734 184.042 751.193 190.922C751.444 191.614 751.718 192.33 751.957 193.046C754.837 201.477 756.837 210.184 757.924 219.027C758.02 219.767 758.115 220.507 758.223 221.223C758.962 227.584 759.356 233.563 759.547 238.6C759.547 239.411 759.619 240.199 759.643 240.986C759.774 248.696 759.499 253.685 759.499 253.685Z" fill="#CC6151"/>
<path d="M759.51 253.683C759.51 253.683 760.704 211.161 751.467 193.82L743.697 200.146C743.697 200.146 747.612 213.918 749.915 224.241C754.128 243.157 753.603 254.662 753.603 254.662L759.51 253.683Z" fill="#AC4333"/>
<path d="M735.533 172.531C735.533 172.531 727.454 189.239 743.696 200.195L748.315 215.793C748.315 215.793 737.359 209.981 732.323 199.575C729.697 194.144 724.064 184.621 724.064 184.621L735.533 172.531Z" fill="#AC4333"/>
<path d="M709.102 163.283C709.102 163.283 712.574 169.465 723.124 163.02C721.858 159.311 721.7 155.313 722.671 151.516L711.93 154.141C711.93 154.141 712.956 158.211 709.102 163.283Z" fill="#C9643E"/>
<path d="M717.824 130.76C723.302 131.953 726.369 139.114 724.675 146.847C722.98 154.581 717.168 159.772 711.69 158.555C706.212 157.337 703.145 150.141 704.84 142.467C706.534 134.793 712.31 129.566 717.824 130.76Z" fill="#ED8150"/>
<path d="M707.645 142.062C705.795 144.345 704.16 146.794 702.763 149.378C702.72 149.475 702.698 149.579 702.699 149.685C702.7 149.791 702.725 149.895 702.77 149.99C702.815 150.085 702.881 150.17 702.962 150.237C703.044 150.305 703.139 150.354 703.241 150.381C704.885 150.924 706.587 151.268 708.313 151.407C709.84 151.3 707.645 142.062 707.645 142.062Z" fill="#ED8150"/>
<path d="M707.645 136.035C706.864 137.154 706.208 138.354 705.688 139.615C706.932 139.91 708.224 139.943 709.482 139.71C710.739 139.478 711.934 138.986 712.991 138.266C718.481 134.686 724.066 138.684 724.066 138.684L723.362 134.042L708.826 130.76L707.645 136.035Z" fill="#C9643E"/>
<path d="M723.05 141.191C722.269 141.159 721.519 140.873 720.915 140.375C720.312 139.877 719.888 139.195 719.709 138.434C718.826 135.617 715.15 135.82 712.548 137.241C709.946 138.661 705.578 139.186 702.607 137.467C700.327 136.166 697.606 131.5 701.843 128.373C705.686 125.497 715.591 124.59 718.682 125.163C724.315 126.225 730.951 133.589 729.793 140.427C728.97 145.201 726.213 152.898 722.334 152.803C723.301 147.707 724.638 144.401 723.05 141.191Z" fill="#3F2B2A"/>
<path d="M721.857 144.042C721.857 144.042 723.946 141.787 725.545 143.589C727.144 145.391 724.685 151.155 721.964 149.246C719.243 147.336 721.857 144.042 721.857 144.042Z" fill="#ED8150"/>
<path d="M796.758 147.241C797.51 146.835 797.761 144.52 796.519 143.923C795.906 143.725 795.247 143.725 794.634 143.923C794.634 143.851 794.896 142.085 793.333 142.014C791.77 141.942 791.101 143.935 790.075 144.842C787.032 147.515 783.941 148.064 783.463 147.336C782.986 146.608 784.096 144.949 784.919 144.603C785.155 144.499 785.358 144.333 785.507 144.123C785.656 143.913 785.746 143.667 785.766 143.41C785.783 143.145 785.695 142.883 785.521 142.683C785.347 142.482 785.101 142.357 784.836 142.336C784.036 142.145 781.446 143.529 780.861 145.176C778.475 151.669 778.331 157.934 779.752 160.225C780.348 161.18 782.198 160.762 785.48 156.585C789.227 156.442 796.305 154.795 795.6 151.633C797.808 151.048 798.512 148.088 796.758 147.241Z" fill="#ED8150"/>
<path d="M766.541 209.158C772.293 210.208 779.048 210.28 783.106 205.363C786.602 201.126 787.39 195.171 787.879 189.848C788.475 182.834 788.226 175.774 787.139 168.82C786.638 165.669 786.28 161.408 784.454 158.699C782.962 156.468 780.146 156.312 777.771 155.668C777.084 161.169 776.036 166.619 774.632 171.982C773.546 176.219 772.532 181.78 769.309 185.015C765.514 188.822 760.466 183.821 757.471 181.434C753.498 178.046 749.33 174.894 744.987 171.994C741.073 169.524 736.359 167.125 731.597 167.936C729.543 168.268 727.621 169.16 726.042 170.514C724.462 171.868 723.287 173.631 722.646 175.61C720.188 184.072 729.461 191.125 735.368 195.433C744.593 202.128 755.203 207.236 766.541 209.158Z" fill="#CC6151"/>
<path d="M819.532 394.984C820.351 393.958 829.22 394.823 829.312 395.353C829.589 396.98 830.004 403.242 829.162 404.073C828.32 404.903 820.674 406.622 820.501 405.03C820.351 403.658 818.736 395.976 819.532 394.984Z" fill="#ED8150"/>
<path d="M829.781 402.16C829.781 402.16 833.887 408.031 830.934 412.632C830.934 412.632 809.563 413.636 803.116 412.632C803.116 412.632 802.943 404.767 808.479 404.086C812.382 403.667 816.306 403.475 820.231 403.51C820.231 403.51 825.767 406.52 829.781 402.16Z" fill="#332322"/>
<path d="M868.05 395.021C868.869 393.995 876.481 394.825 876.561 395.356C876.838 396.982 877.253 403.244 876.412 404.075C875.57 404.905 868.915 407.477 868.742 405.897C868.592 404.525 867.254 396.013 868.05 395.021Z" fill="#ED8150"/>
<path d="M829.554 319.04C828.551 331.612 829.474 356.951 830.477 369.51C830.477 370.352 830.477 399.555 830.477 399.555L818.667 400.708C812.289 381.494 800.006 338.463 800.006 319.363C800.006 300.264 801.655 268.432 808.667 253.335C815.345 238.975 841.676 258.801 844.767 262.319C846.197 263.945 843.498 278.466 839.75 288.119C835.425 299.272 830.096 312.282 829.554 319.04Z" fill="#894731"/>
<path d="M831.316 369.38C830.624 356.785 828.548 331.562 829.551 318.99C830.093 312.232 838.282 292.752 842.619 281.599C841.465 278.139 842.907 270.769 840.07 268.912C837.763 267.332 828.536 277.735 827.498 280.815C826.668 283.248 828.179 286.316 828.363 288.75C828.639 293.203 827.6 297.638 825.376 301.506C822.124 307.272 818.122 311.817 816.288 318.356C812.759 331.043 815.584 344.306 818.595 356.82C820.486 364.697 822.504 372.644 822.977 380.763C823.243 385.434 823.9 395.664 823.231 400.243L830.52 399.551C830.52 399.551 831.996 381.963 831.316 369.38Z" fill="#693626"/>
<path d="M877.474 399.554L866.99 400.707C861.511 382.599 846.887 351.69 844.73 332.66C841.397 303.18 837.372 271.614 837.188 263.852C837.188 262.606 837.188 261.937 837.188 261.937C844.407 253.16 856.644 249.573 862.1 248.927C864.245 248.674 865.813 249.089 866.494 250.219C868.503 253.549 870.272 257.018 871.788 260.599C880.576 281.475 873.172 294.046 873.333 321.219C873.333 322.787 873.333 324.402 873.333 325.994C873.622 337.204 870.588 351.033 873.818 362.75C880.161 385.713 877.474 399.554 877.474 399.554Z" fill="#894731"/>
<path d="M875.836 361.966C874.014 349.948 873.611 337.181 873.345 325.97C873.345 324.378 873.345 322.764 873.345 321.195C873.184 294.057 880.577 280.828 871.788 259.918C871.788 255.743 861.927 253.713 861.846 256.251C861.834 259.305 862.096 262.355 862.631 265.362C863.496 270.633 864.614 275.834 863.853 281.267C862.7 289.674 859.955 297.609 859.39 306.179C858.363 321.922 861.962 336.385 867.313 351.021C870.805 359.956 873.183 369.288 874.395 378.805C875.002 385.78 875.253 392.783 875.144 399.784L877.532 399.553C877.532 399.553 880.231 390.88 875.836 361.966Z" fill="#693626"/>
<path d="M877.037 402.16C877.037 402.16 881.143 408.031 878.19 412.632C878.19 412.632 856.819 413.636 850.372 412.632C850.372 412.632 850.199 404.767 855.735 404.086C861.271 403.406 868.352 403.117 868.352 403.117C869.659 404.067 871.274 404.495 872.88 404.318C874.486 404.141 875.968 403.372 877.037 402.16V402.16Z" fill="#332322"/>
<path d="M839.02 210.348C839.984 212.715 840.677 215.183 841.084 217.706C841.846 222.1 831.777 225.18 831.039 226.322C826.333 233.715 812.851 245.536 798.803 248.143C789.057 249.965 782.991 227.498 778.55 212.112C775.298 200.867 776.244 195.966 777.801 192.506C779.012 189.83 783.175 195.551 783.175 195.551C786.531 193.244 794.709 222.354 799.322 219.667C802.355 217.891 807.176 212.435 810.936 205.066C811.501 203.97 821.489 183.383 827.994 177.385C834.499 171.388 839.02 210.348 839.02 210.348Z" fill="#ED8150"/>
<path d="M836.913 206.876C836.913 206.876 845.609 203.981 845.309 208.502C844.987 213.762 841.515 230.081 836.706 236.459C825.853 235.664 804.481 210.602 809.175 202.736C816.338 190.764 823.015 179.9 830.558 175.609C838.101 171.319 836.913 206.876 836.913 206.876Z" fill="#66A593"/>
<path d="M786.162 196.599C786.623 192.286 784.686 184.916 783.417 183.117C783.163 182.698 782.829 182.335 782.433 182.047C782.036 181.76 781.587 181.555 781.11 181.444C779.621 181.338 778.126 181.554 776.728 182.079C775.978 182.309 775.251 182.713 775.424 183.786C775.52 184.194 775.728 184.568 776.026 184.863C776.324 185.159 776.699 185.365 777.108 185.458C778.631 185.862 779.415 185.043 780.845 187.153C781.249 187.753 781.525 188.445 781.998 189.033C782.26 189.405 782.503 189.79 782.725 190.187C782.112 189.818 781.385 189.689 780.683 189.823C779.981 189.957 779.353 190.345 778.919 190.913C777.959 191.821 777.222 192.94 776.768 194.18C776.314 195.421 776.154 196.751 776.301 198.064C775.995 198.197 775.751 198.442 775.62 198.748C775.489 199.055 775.481 199.4 775.597 199.713C776.405 201.766 777.235 203.796 778.158 205.803C778.631 206.829 779.15 208.605 780.188 209.263C781.756 210.278 785.481 209.113 786.911 208.317C788.342 207.521 789.714 207.994 789.322 206.253C788.964 204.788 786.346 198.687 786.162 196.599Z" fill="#ED8150"/>
<path d="M776.306 171.008L768.947 172.795L769.224 173.949L772.961 173.095L775.625 172.495C776.103 172.425 776.589 172.543 776.981 172.825C777.373 173.107 777.639 173.531 777.724 174.006L782.707 193.74C782.789 193.967 782.825 194.208 782.811 194.449C782.797 194.69 782.734 194.925 782.626 195.141C782.518 195.357 782.367 195.549 782.183 195.704C781.998 195.86 781.784 195.976 781.553 196.047L775.187 197.534L775.787 199.841L783.168 198.215C783.393 198.146 783.602 198.032 783.783 197.881C783.963 197.729 784.111 197.543 784.219 197.334C784.326 197.124 784.391 196.895 784.408 196.66C784.426 196.425 784.396 196.189 784.321 195.966L778.405 172.565C778.328 172.082 778.065 171.649 777.673 171.358C777.28 171.067 776.79 170.941 776.306 171.008V171.008Z" fill="#40456F"/>
<path d="M775.562 171.248H775.447L764.674 173.716C764.443 173.787 764.229 173.903 764.045 174.059C763.86 174.214 763.71 174.406 763.602 174.622C763.494 174.838 763.431 175.073 763.417 175.314C763.403 175.555 763.439 175.796 763.521 176.023L769.438 199.355C769.528 199.828 769.796 200.248 770.186 200.529C770.577 200.81 771.06 200.931 771.537 200.866L782.309 198.409H782.424C782.848 198.244 783.192 197.921 783.385 197.509C783.578 197.097 783.606 196.627 783.462 196.195L777.546 172.782C777.459 172.328 777.21 171.922 776.845 171.639C776.479 171.357 776.023 171.218 775.562 171.248V171.248Z" fill="#6163A0"/>
<path d="M770.594 174.053C770.297 174.13 770.043 174.321 769.887 174.585C769.731 174.849 769.687 175.163 769.763 175.46C769.84 175.757 770.031 176.011 770.295 176.167C770.559 176.323 770.873 176.367 771.17 176.291C771.466 176.219 771.722 176.034 771.882 175.775C772.042 175.515 772.093 175.203 772.024 174.907C771.989 174.755 771.924 174.612 771.832 174.486C771.74 174.36 771.624 174.254 771.491 174.175C771.357 174.095 771.209 174.043 771.055 174.022C770.9 174.001 770.744 174.012 770.594 174.053V174.053Z" fill="#292340"/>
<path d="M766.901 193.267C766.906 193.209 766.922 193.152 766.95 193.1C766.978 193.048 767.016 193.003 767.063 192.967C766.506 192.894 766 192.604 765.656 192.16C765.536 191.878 765.49 191.57 765.522 191.265C765.554 190.96 765.664 190.669 765.84 190.418C765.84 190.418 765.84 190.418 765.84 190.418C765.266 190.431 764.701 190.277 764.214 189.974C763.726 189.671 763.338 189.232 763.095 188.711C762.726 187.662 763.361 187.016 764.249 186.601C763.853 186.521 763.467 186.401 763.095 186.243C761.562 185.609 761.873 183.856 762.611 182.922C762.662 182.857 762.73 182.809 762.808 182.782C762.886 182.755 762.97 182.752 763.049 182.772C763.083 182.763 763.119 182.763 763.153 182.772C764.227 182.493 765.331 182.354 766.44 182.356C767.351 182.264 768.27 182.399 769.116 182.749C770.477 183.556 769.473 184.871 768.689 185.597C769.843 185.401 770.904 185.517 771.157 187.016C771.247 187.432 771.225 187.865 771.094 188.27C770.962 188.676 770.725 189.039 770.408 189.323C770.961 189.324 771.506 189.454 771.999 189.703C773.233 190.361 772.564 191.745 771.919 192.367C771.616 192.654 771.259 192.877 770.869 193.025C770.96 193.072 771.042 193.135 771.111 193.209C771.699 193.878 771.111 194.882 770.638 195.285C770.285 195.568 769.855 195.741 769.404 195.781C768.953 195.822 768.5 195.728 768.102 195.513C767.703 195.298 767.377 194.97 767.164 194.571C766.95 194.171 766.859 193.718 766.901 193.267Z" fill="#ED8150"/>
<path d="M803.268 258.66C803.268 258.66 822.321 273.538 877.992 263.769C877.992 263.769 887.335 194.972 868.881 178.895C864.752 175.296 850.162 172.205 843.312 172.482C813.844 173.624 811.087 200.335 803.268 258.66Z" fill="#86BFAF"/>
<path d="M877.99 263.724C877.99 263.724 882.8 208.191 875.684 190.648L871.07 209.759C871.07 209.759 872.789 222.504 875.038 232.734C879.178 251.464 872.131 264.67 872.131 264.67L877.99 263.724Z" fill="#66A593"/>
<path d="M873.46 224.659C873.46 224.659 858.178 223.91 841.166 213.334L850.866 204.199L868.05 207.913L874.682 211.765L873.46 224.659Z" fill="#66A593"/>
<path d="M836.91 173.177C836.91 173.177 840.37 179.301 850.75 172.946C849.507 169.273 849.359 165.318 850.323 161.562L839.747 164.088C839.747 164.088 840.774 168.113 836.91 173.177Z" fill="#C9643E"/>
<path d="M847.014 140.664C852.435 141.875 855.457 149.014 853.761 156.603C852.066 164.192 846.437 168.252 840.878 168.137C832.459 168.01 832.447 159.798 834.143 152.209C835.838 144.62 841.605 139.453 847.014 140.664Z" fill="#ED8150"/>
<path d="M836.91 145.864C836.133 146.978 835.48 148.173 834.961 149.428C836.192 149.719 837.471 149.752 838.716 149.523C839.961 149.295 841.144 148.811 842.192 148.102C847.636 144.549 853.149 148.551 853.149 148.551L852.469 143.938L838.063 140.686L836.91 145.864Z" fill="#C9643E"/>
<path d="M852.168 150.997C851.394 150.965 850.651 150.681 850.054 150.187C849.456 149.693 849.036 149.018 848.858 148.264C847.993 145.473 844.36 145.669 841.73 147.11C839.101 148.552 834.81 149.013 831.893 147.306C829.643 146.015 826.968 141.424 831.166 138.299C834.972 135.462 844.775 134.585 847.832 135.173C853.402 136.177 859.976 143.477 858.823 150.247C858.004 155.011 855.363 162.588 851.419 162.484C852.399 157.456 853.725 154.18 852.168 150.997Z" fill="#332322"/>
<path d="M850.993 153.821C850.993 153.821 853.08 151.595 854.649 153.382C856.218 155.17 853.784 160.868 851.085 158.976C848.386 157.085 850.993 153.821 850.993 153.821Z" fill="#ED8150"/>
<path d="M836.91 173.176C836.91 173.176 833.035 172.9 831.086 174.976C831.086 174.976 831.086 178.932 836.853 181.527C837.543 179.085 839.167 177.013 841.374 175.76C839.615 175.487 838.023 174.565 836.91 173.176Z" fill="#66A593"/>
<path d="M841.443 175.771C842.46 177.599 843.272 179.532 843.865 181.538C843.865 181.538 850.785 178.251 854.049 173.73C853.088 173.122 851.953 172.847 850.82 172.945C848 174.701 844.764 175.676 841.443 175.771V175.771Z" fill="#66A593"/>
<path d="M828.133 246.516C812.39 244.901 802.76 203.485 802.76 203.485L809.23 200.463C809.23 200.463 819.379 222.261 828.664 222.469C830.348 222.469 843.473 212.089 844.995 206.137C845.664 203.473 846.264 200.717 846.737 198.364C847.832 192.602 850.878 187.392 855.364 183.613C859.7 180.026 860.761 179.807 864.59 179.172C869.919 178.273 876.77 186.646 875.87 191.974C874.152 202.228 867.047 216.864 866.851 217.348C859.435 234.81 843.922 248.131 828.133 246.516Z" fill="#ED8150"/>
<path d="M841.928 207.913C842.539 205.456 846.668 189.828 855.572 182.724C859.62 179.495 867.509 176.6 871.938 181.409C879.042 189.113 876.551 206.448 871.465 220.15C860.866 221.165 850.266 216.309 841.928 207.913Z" fill="#86BFAF"/>
<path d="M800.325 181.386C801.672 182.649 802.761 184.161 803.531 185.838C803.684 186.007 803.826 186.184 803.958 186.369C804.085 186.173 804.177 185.942 804.304 185.746C805.181 184.593 807.095 183.359 808.502 184.466C809.909 185.573 808.595 187.707 808.099 189.079C807.453 190.617 807.112 192.266 807.095 193.935C807.402 195.521 807.886 197.069 808.537 198.548C808.929 199.632 809.794 201.281 809.171 202.446C808.368 203.419 807.285 204.12 806.069 204.453C805.478 204.554 804.872 204.515 804.299 204.338C803.726 204.162 803.202 203.854 802.77 203.438C801.94 202.816 801.192 202.091 800.544 201.281C799.107 200.044 798.052 198.424 797.499 196.61C797.408 196.208 797.35 195.8 797.326 195.388C795.93 194.318 794.86 192.88 794.235 191.236C794.17 191.07 794.145 190.892 794.16 190.714C794.176 190.537 794.232 190.366 794.325 190.214C794.417 190.062 794.544 189.934 794.695 189.839C794.845 189.744 795.016 189.685 795.193 189.667C795.09 189.29 795.09 188.892 795.193 188.514C795.314 188.118 795.582 187.784 795.942 187.58C795.929 187.191 795.976 186.802 796.081 186.426C796.227 185.844 796.54 185.316 796.98 184.907C797.42 184.497 797.969 184.224 798.56 184.12C796.949 183.077 795.152 182.356 793.267 181.998C793.058 181.951 792.864 181.851 792.705 181.708C792.546 181.565 792.427 181.383 792.358 181.18C792.29 180.977 792.275 180.76 792.315 180.55C792.355 180.339 792.448 180.143 792.586 179.979C794.328 177.65 798.664 179.933 800.325 181.386Z" fill="#ED8150"/>
<path fill-rule="evenodd" clip-rule="evenodd" d="M904.509 90.0384C903.326 87.4598 900.911 85.4526 898.458 84.095C897.266 83.4539 894.457 81.9749 893.22 82.2668C892.17 82.5272 892.248 83.7566 893.417 84.1662C895.152 84.8085 896.739 85.7979 898.08 87.0739C896.207 85.8571 895.328 88.4998 896.168 89.6624C895.346 89.57 895.146 91.2332 896.39 92.3611C895.685 92.0192 895.062 94.2807 897.592 95.8526C898.225 96.3019 898.71 96.6242 899.142 96.8521C899.311 97.3998 899.535 98.1095 899.771 98.8531L899.771 98.8532C900.357 100.702 901.008 102.76 901.03 103.059C901.046 103.323 906.746 104.413 907.277 103.552C908.081 102.257 907.499 99.7481 906.873 97.0457C906.68 96.2136 906.483 95.3631 906.321 94.524C906.728 92.9609 907.022 91.37 907.201 89.7636C907.152 89.2388 906.984 88.7321 906.71 88.2816C906.436 87.8311 906.064 87.4486 905.621 87.1628C904.737 86.4569 903.691 87.7505 904.334 88.5797C904.607 88.9113 904.845 89.2695 905.045 89.649C904.853 89.7607 904.674 89.8913 904.509 90.0384Z" fill="#ED8150"/>
<circle cx="791" cy="102" r="47" fill="#F5B401"/>
<circle cx="796" cy="100" r="47" fill="#FDD353"/>
<path d="M796 141C818.644 141 837 122.644 837 100C837 77.3563 818.644 59 796 59" stroke="#F5B401"/>
<path d="M780.021 100.43V97.1484H782.658V88.2129C782.658 85.0488 783.83 82.4023 786.174 80.2734C788.518 78.1445 791.486 77.0898 795.08 77.1094C796.76 77.1094 798.381 77.4023 799.943 77.9883C801.506 78.5742 802.639 79.1406 803.342 79.6875L804.426 80.5078L801.906 83.5254C799.953 81.8457 797.688 81.0059 795.109 81.0059C792.531 81.0059 790.51 81.7188 789.045 83.1445C787.58 84.5703 786.848 86.3379 786.848 88.4473V97.1484H798.361V100.43H786.848V116.279H807.18V120H778.879V116.279H782.658V100.43H780.021Z" fill="#F5B401"/>
<circle cx="371.657" cy="65.1313" r="34.6566" fill="#F5B401"/>
<circle cx="375.343" cy="63.6566" r="34.6566" fill="#FDD353"/>
<path d="M375.344 93.8885C392.041 93.8885 405.576 80.353 405.576 63.6562C405.576 46.9593 392.041 33.4238 375.344 33.4238" stroke="#F5B401" stroke-width="0.737374"/>
<path d="M363.788 64.2569V61.8374H365.733V55.2485C365.733 52.9154 366.597 50.964 368.325 49.3942C370.053 47.8244 372.242 47.0467 374.892 47.0611C376.131 47.0611 377.326 47.2771 378.478 47.7092C379.63 48.1412 380.466 48.5589 380.984 48.9621L381.783 49.567L379.926 51.7921C378.485 50.5535 376.815 49.9342 374.914 49.9342C373.013 49.9342 371.522 50.4599 370.442 51.5112C369.362 52.5626 368.822 53.8659 368.822 55.4213V61.8374H377.312V64.2569H368.822V75.944H383.814V78.6875H362.946V75.944H365.733V64.2569H363.788Z" fill="#F5B401"/>
<path d="M366.154 99.5245C365.324 99.6655 364.368 97.6918 364.462 96.6423C364.498 96.3563 364.454 96.066 364.335 95.8035C364.216 95.5409 364.027 95.3163 363.789 95.1542C363.147 94.7782 362.708 95.1542 362.379 95.5928C362.061 96.507 361.941 97.4786 362.027 98.4429C362.113 99.4071 362.404 100.342 362.88 101.185C367.423 106.871 367.031 99.3679 366.154 99.5245Z" fill="#EFA07F"/>
<circle cx="1095" cy="157" r="4" fill="#DDD9F8"/>
<circle cx="168" cy="203" r="4" fill="#DDD9F8"/>
<circle cx="176" cy="249" r="4" fill="#DDD9F8"/>
<circle cx="519" cy="145" r="4" fill="#DDD9F8"/>
<circle cx="1073.5" cy="249.5" r="2.5" fill="#DDD9F8"/>
<defs>
<radialGradient id="paint0_radial_11_15878" cx="0" cy="0" r="1" gradientUnits="userSpaceOnUse" gradientTransform="translate(971.644 150.004) rotate(16.2602) scale(4.45095)">
<stop stop-color="#D55838"/>
<stop offset="0.11" stop-color="#D55838" stop-opacity="0.97"/>
<stop offset="0.25" stop-color="#D55838" stop-opacity="0.9"/>
<stop offset="0.4" stop-color="#D55838" stop-opacity="0.78"/>
<stop offset="0.57" stop-color="#D55838" stop-opacity="0.61"/>
<stop offset="0.74" stop-color="#D55838" stop-opacity="0.39"/>
<stop offset="0.92" stop-color="#D55838" stop-opacity="0.13"/>
<stop offset="1" stop-color="#D55838" stop-opacity="0"/>
</radialGradient>
<linearGradient id="paint1_linear_11_15878" x1="446.871" y1="258.836" x2="442.229" y2="363.215" gradientUnits="userSpaceOnUse">
<stop stop-color="#DE5563"/>
<stop offset="0.11" stop-color="#DE5563" stop-opacity="0.98"/>
<stop offset="0.24" stop-color="#DE5563" stop-opacity="0.91"/>
<stop offset="0.39" stop-color="#DE5563" stop-opacity="0.79"/>
<stop offset="0.55" stop-color="#DE5563" stop-opacity="0.63"/>
<stop offset="0.72" stop-color="#DE5563" stop-opacity="0.42"/>
<stop offset="0.89" stop-color="#DE5563" stop-opacity="0.17"/>
<stop offset="1" stop-color="#DE5563" stop-opacity="0"/>
</linearGradient>
</defs>
</svg>